<svg aria-hidden="true" style="position: absolute; width: 0; height: 0; overflow: hidden;" version="1.1"
    xmlns="http://www.w3.org/2000/svg" xmlns:xlink="http://www.w3.org/1999/xlink">
    <defs>
        <symbol id="icon-stamp" viewBox="0 0 32 32">
            <path
                d="M15.886 3.532h-1.252v-3.532h1.263c0.355 0 0.661 0.071 0.918 0.212 0.256 0.14 0.454 0.342 0.592 0.605 0.139 0.263 0.209 0.578 0.209 0.945 0 0.368-0.070 0.684-0.209 0.949-0.138 0.264-0.336 0.467-0.595 0.609-0.258 0.141-0.566 0.212-0.925 0.212zM15.38 2.893h0.474c0.221 0 0.406-0.039 0.557-0.117 0.152-0.079 0.266-0.202 0.341-0.367 0.077-0.167 0.116-0.382 0.116-0.645 0-0.261-0.039-0.474-0.116-0.64-0.076-0.166-0.189-0.287-0.34-0.366s-0.336-0.117-0.557-0.117h-0.476v2.253z">
            </path>
            <path
                d="M20.027 4.155l1.437-3.227 2.175 0.968-0.25 0.563-1.492-0.664-0.342 0.769 1.38 0.615-0.25 0.563-1.38-0.615-0.343 0.771 1.498 0.667-0.25 0.563-2.181-0.971z">
            </path>
            <path d="M24.459 6.819l2.625-2.364 0.5 0.555-2.168 1.952 1.013 1.125-0.458 0.412-1.513-1.68z"></path>
            <path d="M31.243 11.405l-3.36 1.092-0.231-0.71 3.359-1.092 0.231 0.71z"></path>
            <path
                d="M30.384 19.078l0.079-0.751c0.099-0.003 0.188-0.022 0.268-0.057s0.152-0.082 0.213-0.142c0.061-0.061 0.11-0.133 0.148-0.217 0.038-0.083 0.062-0.174 0.072-0.275 0.019-0.182-0.009-0.345-0.086-0.489-0.075-0.144-0.194-0.263-0.358-0.355-0.163-0.092-0.366-0.151-0.609-0.177-0.251-0.026-0.465-0.011-0.643 0.045-0.178 0.058-0.318 0.149-0.419 0.275s-0.161 0.277-0.179 0.455c-0.011 0.099-0.007 0.193 0.010 0.28 0.017 0.089 0.048 0.169 0.091 0.24 0.045 0.072 0.101 0.133 0.17 0.184 0.069 0.052 0.149 0.092 0.241 0.119l-0.083 0.751c-0.159-0.036-0.309-0.101-0.451-0.195-0.141-0.092-0.263-0.21-0.367-0.352-0.103-0.142-0.18-0.306-0.229-0.492-0.049-0.186-0.061-0.391-0.038-0.616 0.033-0.313 0.133-0.586 0.301-0.818 0.168-0.231 0.393-0.404 0.677-0.518 0.284-0.114 0.617-0.15 0.999-0.11s0.701 0.147 0.955 0.319c0.254 0.172 0.438 0.389 0.553 0.651s0.157 0.547 0.125 0.856c-0.021 0.204-0.070 0.389-0.145 0.557-0.075 0.169-0.175 0.315-0.299 0.439-0.123 0.124-0.268 0.219-0.434 0.287-0.167 0.069-0.353 0.105-0.559 0.108z">
            </path>
            <path d="M29.521 24.207l-3.059-1.766 0.373-0.647 3.059 1.766-0.373 0.647z"></path>
            <path
                d="M22.959 28.255c-0.226-0.312-0.36-0.62-0.401-0.924s-0.003-0.587 0.116-0.85c0.119-0.261 0.304-0.483 0.556-0.666 0.254-0.185 0.524-0.292 0.809-0.324s0.567 0.020 0.843 0.153c0.276 0.133 0.527 0.356 0.753 0.666s0.36 0.619 0.402 0.923 0.003 0.586-0.116 0.847c-0.118 0.262-0.304 0.485-0.558 0.67-0.252 0.183-0.521 0.29-0.807 0.322-0.286 0.033-0.567-0.017-0.843-0.151s-0.529-0.355-0.755-0.667zM23.572 27.81c0.147 0.202 0.301 0.35 0.462 0.445s0.321 0.139 0.482 0.132 0.314-0.064 0.46-0.17c0.146-0.106 0.247-0.235 0.304-0.385s0.065-0.317 0.025-0.5c-0.041-0.182-0.135-0.374-0.282-0.576s-0.3-0.351-0.46-0.446c-0.161-0.095-0.322-0.138-0.483-0.131s-0.314 0.064-0.46 0.17c-0.146 0.106-0.247 0.235-0.304 0.385s-0.065 0.317-0.023 0.499c0.040 0.183 0.134 0.375 0.28 0.577z">
            </path>
            <path
                d="M18.476 30.534c0.042 0.133 0.123 0.227 0.241 0.28s0.265 0.062 0.441 0.024c0.119-0.025 0.216-0.063 0.291-0.115 0.075-0.050 0.128-0.109 0.16-0.177 0.030-0.067 0.038-0.138 0.022-0.213-0.011-0.062-0.035-0.114-0.073-0.154-0.039-0.040-0.087-0.071-0.145-0.094s-0.122-0.038-0.194-0.049c-0.071-0.009-0.147-0.015-0.226-0.015l-0.326-0.008c-0.158-0.002-0.306-0.017-0.444-0.047s-0.262-0.075-0.371-0.138c-0.11-0.062-0.202-0.144-0.276-0.245-0.075-0.1-0.129-0.222-0.161-0.366-0.044-0.212-0.029-0.407 0.045-0.585 0.073-0.177 0.2-0.329 0.383-0.457 0.181-0.127 0.412-0.22 0.694-0.28 0.279-0.059 0.531-0.068 0.756-0.027 0.224 0.042 0.412 0.134 0.563 0.277 0.151 0.144 0.255 0.34 0.314 0.588l-0.707 0.15c-0.032-0.114-0.086-0.204-0.161-0.269-0.076-0.064-0.168-0.105-0.275-0.123-0.108-0.017-0.225-0.012-0.351 0.015-0.124 0.026-0.227 0.067-0.311 0.122-0.085 0.056-0.145 0.121-0.182 0.196s-0.047 0.154-0.029 0.237c0.017 0.078 0.053 0.138 0.111 0.181 0.056 0.043 0.132 0.074 0.228 0.093 0.095 0.019 0.208 0.030 0.34 0.033l0.396 0.015c0.306 0.009 0.56 0.071 0.761 0.186s0.328 0.3 0.381 0.555c0.046 0.209 0.029 0.404-0.050 0.584-0.080 0.181-0.21 0.336-0.39 0.465s-0.395 0.221-0.647 0.275c-0.256 0.054-0.49 0.058-0.699 0.011-0.211-0.047-0.387-0.137-0.527-0.271s-0.234-0.303-0.281-0.508l0.7-0.149z">
            </path>
            <path
                d="M14.509 28.168l-0.734 3.455-2.328-0.495 0.128-0.603 1.598 0.34 0.175-0.823-1.478-0.314 0.128-0.602 1.478 0.314 0.175-0.825-1.604-0.341 0.128-0.602 2.335 0.496z">
            </path>
            <path
                d="M5.876 23.006l-3.059 1.766-1.169-2.026 0.533-0.308 0.796 1.379 0.729-0.421-0.718-1.244 0.533-0.308 0.718 1.244 1.264-0.73 0.373 0.647z">
            </path>
            <path
                d="M1.805 15.702c0.383-0.040 0.717-0.002 1.001 0.115 0.284 0.116 0.51 0.291 0.678 0.525 0.167 0.233 0.266 0.505 0.299 0.815 0.033 0.312-0.009 0.6-0.124 0.863s-0.3 0.481-0.554 0.653c-0.254 0.172-0.571 0.279-0.953 0.319-0.383 0.040-0.717 0.003-1-0.113s-0.509-0.29-0.676-0.524c-0.168-0.233-0.268-0.506-0.301-0.818-0.033-0.31 0.009-0.596 0.125-0.859 0.114-0.264 0.298-0.482 0.552-0.655 0.253-0.174 0.572-0.28 0.955-0.321zM1.884 16.455c-0.248 0.026-0.454 0.085-0.616 0.177-0.163 0.091-0.281 0.208-0.355 0.351s-0.102 0.304-0.083 0.484c0.019 0.18 0.079 0.332 0.181 0.456s0.242 0.215 0.421 0.271c0.178 0.055 0.391 0.070 0.639 0.044s0.454-0.085 0.616-0.176c0.163-0.092 0.281-0.21 0.355-0.353s0.102-0.304 0.083-0.484c-0.019-0.18-0.079-0.332-0.181-0.456s-0.242-0.214-0.42-0.27c-0.178-0.056-0.391-0.072-0.64-0.046z">
            </path>
            <path
                d="M3.102 9.94c0.366 0.119 0.655 0.29 0.867 0.512 0.212 0.221 0.347 0.473 0.406 0.756 0.057 0.281 0.038 0.57-0.058 0.866-0.097 0.299-0.252 0.544-0.465 0.738s-0.47 0.317-0.772 0.371c-0.302 0.054-0.635 0.022-1.001-0.097-0.366-0.119-0.656-0.289-0.868-0.511s-0.347-0.472-0.404-0.754c-0.058-0.281-0.039-0.571 0.058-0.87 0.096-0.296 0.251-0.541 0.464-0.734 0.212-0.195 0.469-0.319 0.771-0.373 0.302-0.055 0.636-0.024 1.003 0.095zM2.868 10.66c-0.237-0.077-0.449-0.107-0.635-0.088-0.186 0.017-0.341 0.076-0.467 0.176s-0.217 0.237-0.272 0.408c-0.056 0.172-0.062 0.335-0.020 0.491s0.134 0.295 0.274 0.419c0.14 0.123 0.329 0.223 0.566 0.3s0.449 0.107 0.635 0.090c0.186-0.018 0.342-0.078 0.468-0.178s0.217-0.237 0.272-0.408c0.056-0.172 0.062-0.335 0.020-0.491s-0.134-0.294-0.274-0.417c-0.14-0.124-0.328-0.225-0.566-0.302z">
            </path>
            <path
                d="M6.756 7.704l-0.838 0.931-2.625-2.364 0.845-0.938c0.238-0.264 0.495-0.444 0.772-0.54s0.558-0.108 0.846-0.035c0.289 0.073 0.569 0.232 0.842 0.477s0.462 0.51 0.565 0.79c0.104 0.279 0.122 0.563 0.054 0.85s-0.221 0.562-0.461 0.829zM5.942 7.652l0.317-0.353c0.148-0.164 0.243-0.328 0.286-0.492 0.043-0.166 0.028-0.332-0.045-0.5-0.072-0.169-0.206-0.341-0.402-0.518-0.194-0.175-0.378-0.289-0.553-0.342s-0.34-0.052-0.499 0.008-0.312 0.171-0.46 0.336l-0.319 0.354 1.674 1.507z">
            </path>
            <path
                d="M10.54 2.043c-0.069-0.121-0.167-0.196-0.294-0.224s-0.272-0.005-0.436 0.068c-0.111 0.050-0.198 0.107-0.261 0.173-0.063 0.065-0.103 0.133-0.12 0.206-0.016 0.072-0.008 0.143 0.023 0.213 0.024 0.059 0.058 0.104 0.104 0.135 0.046 0.031 0.1 0.052 0.162 0.062 0.061 0.009 0.127 0.012 0.2 0.007 0.072-0.006 0.146-0.016 0.224-0.032l0.321-0.060c0.155-0.031 0.303-0.047 0.444-0.047s0.272 0.019 0.392 0.058c0.12 0.038 0.227 0.099 0.321 0.182 0.095 0.082 0.172 0.191 0.233 0.325 0.087 0.198 0.113 0.392 0.077 0.581-0.035 0.188-0.128 0.363-0.279 0.526-0.151 0.162-0.358 0.301-0.62 0.418-0.261 0.116-0.505 0.177-0.734 0.183-0.228 0.006-0.431-0.046-0.608-0.154-0.177-0.11-0.32-0.28-0.429-0.51l0.66-0.294c0.056 0.105 0.127 0.181 0.214 0.23 0.088 0.047 0.186 0.068 0.294 0.063 0.109-0.006 0.223-0.035 0.341-0.087 0.116-0.051 0.208-0.113 0.278-0.184 0.071-0.072 0.117-0.148 0.138-0.229s0.014-0.16-0.021-0.238c-0.032-0.072-0.081-0.124-0.146-0.154-0.064-0.031-0.145-0.045-0.242-0.043-0.096 0.001-0.21 0.014-0.34 0.038l-0.391 0.068c-0.302 0.055-0.562 0.047-0.783-0.023s-0.383-0.225-0.488-0.464c-0.088-0.195-0.112-0.389-0.072-0.582 0.041-0.193 0.136-0.372 0.284-0.536s0.34-0.299 0.576-0.404c0.239-0.107 0.467-0.159 0.682-0.156 0.216 0.002 0.407 0.054 0.571 0.155s0.292 0.248 0.38 0.439l-0.654 0.291z">
            </path>
        </symbol>
        <symbol id="icon-star" viewBox="0 0 34 32">
            <path
                d="M14.588 1.412l-3.824 7.824-8.647 1.235c-1.529 0.235-2.118 2.118-1 3.235l6.176 6.059-1.471 8.529c-0.235 1.53 1.412 2.706 2.765 2l7.706-4.059 7.647 4.059c1.353 0.706 3-0.471 2.765-2l-1.471-8.529 6.177-6.059c1.118-1.118 0.529-3-1-3.235l-8.588-1.235-3.882-7.824c-0.647-1.353-2.647-1.412-3.353 0z">
            </path>
        </symbol>
    </defs>
</svg>