<svg aria-hidden="true" style="position: absolute; width: 0; height: 0; overflow: hidden;" version="1.1"
    xmlns="http://www.w3.org/2000/svg" xmlns:xlink="http://www.w3.org/1999/xlink">
    <defs>
        <symbol id="icon-stamp" viewBox="0 0 32 32">
            <path
                d="M15.886 3.532h-1.252v-3.532h1.263c0.355 0 0.661 0.071 0.918 0.212 0.256 0.14 0.454 0.342 0.592 0.605 0.139 0.263 0.209 0.578 0.209 0.945 0 0.368-0.070 0.684-0.209 0.949-0.138 0.264-0.336 0.467-0.595 0.609-0.258 0.141-0.566 0.212-0.925 0.212zM15.38 2.893h0.474c0.221 0 0.406-0.039 0.557-0.117 0.152-0.079 0.266-0.202 0.341-0.367 0.077-0.167 0.116-0.382 0.116-0.645 0-0.261-0.039-0.474-0.116-0.64-0.076-0.166-0.189-0.287-0.34-0.366s-0.336-0.117-0.557-0.117h-0.476v2.253z">
            </path>
            <path
                d="M20.027 4.155l1.437-3.227 2.175 0.968-0.25 0.563-1.492-0.664-0.342 0.769 1.38 0.615-0.25 0.563-1.38-0.615-0.343 0.771 1.498 0.667-0.25 0.563-2.181-0.971z">
            </path>
            <path d="M24.459 6.819l2.625-2.364 0.5 0.555-2.168 1.952 1.013 1.125-0.458 0.412-1.513-1.68z"></path>
            <path d="M31.243 11.405l-3.36 1.092-0.231-0.71 3.359-1.092 0.231 0.71z"></path>
            <path
                d="M30.384 19.078l0.079-0.751c0.099-0.003 0.188-0.022 0.268-0.057s0.152-0.082 0.213-0.142c0.061-0.061 0.11-0.133 0.148-0.217 0.038-0.083 0.062-0.174 0.072-0.275 0.019-0.182-0.009-0.345-0.086-0.489-0.075-0.144-0.194-0.263-0.358-0.355-0.163-0.092-0.366-0.151-0.609-0.177-0.251-0.026-0.465-0.011-0.643 0.045-0.178 0.058-0.318 0.149-0.419 0.275s-0.161 0.277-0.179 0.455c-0.011 0.099-0.007 0.193 0.010 0.28 0.017 0.089 0.048 0.169 0.091 0.24 0.045 0.072 0.101 0.133 0.17 0.184 0.069 0.052 0.149 0.092 0.241 0.119l-0.083 0.751c-0.159-0.036-0.309-0.101-0.451-0.195-0.141-0.092-0.263-0.21-0.367-0.352-0.103-0.142-0.18-0.306-0.229-0.492-0.049-0.186-0.061-0.391-0.038-0.616 0.033-0.313 0.133-0.586 0.301-0.818 0.168-0.231 0.393-0.404 0.677-0.518 0.284-0.114 0.617-0.15 0.999-0.11s0.701 0.147 0.955 0.319c0.254 0.172 0.438 0.389 0.553 0.651s0.157 0.547 0.125 0.856c-0.021 0.204-0.070 0.389-0.145 0.557-0.075 0.169-0.175 0.315-0.299 0.439-0.123 0.124-0.268 0.219-0.434 0.287-0.167 0.069-0.353 0.105-0.559 0.108z">
            </path>
            <path d="M29.521 24.207l-3.059-1.766 0.373-0.647 3.059 1.766-0.373 0.647z"></path>
            <path
                d="M22.959 28.255c-0.226-0.312-0.36-0.62-0.401-0.924s-0.003-0.587 0.116-0.85c0.119-0.261 0.304-0.483 0.556-0.666 0.254-0.185 0.524-0.292 0.809-0.324s0.567 0.020 0.843 0.153c0.276 0.133 0.527 0.356 0.753 0.666s0.36 0.619 0.402 0.923 0.003 0.586-0.116 0.847c-0.118 0.262-0.304 0.485-0.558 0.67-0.252 0.183-0.521 0.29-0.807 0.322-0.286 0.033-0.567-0.017-0.843-0.151s-0.529-0.355-0.755-0.667zM23.572 27.81c0.147 0.202 0.301 0.35 0.462 0.445s0.321 0.139 0.482 0.132 0.314-0.064 0.46-0.17c0.146-0.106 0.247-0.235 0.304-0.385s0.065-0.317 0.025-0.5c-0.041-0.182-0.135-0.374-0.282-0.576s-0.3-0.351-0.46-0.446c-0.161-0.095-0.322-0.138-0.483-0.131s-0.314 0.064-0.46 0.17c-0.146 0.106-0.247 0.235-0.304 0.385s-0.065 0.317-0.023 0.499c0.040 0.183 0.134 0.375 0.28 0.577z">
            </path>
            <path
                d="M18.476 30.534c0.042 0.133 0.123 0.227 0.241 0.28s0.265 0.062 0.441 0.024c0.119-0.025 0.216-0.063 0.291-0.115 0.075-0.050 0.128-0.109 0.16-0.177 0.030-0.067 0.038-0.138 0.022-0.213-0.011-0.062-0.035-0.114-0.073-0.154-0.039-0.040-0.087-0.071-0.145-0.094s-0.122-0.038-0.194-0.049c-0.071-0.009-0.147-0.015-0.226-0.015l-0.326-0.008c-0.158-0.002-0.306-0.017-0.444-0.047s-0.262-0.075-0.371-0.138c-0.11-0.062-0.202-0.144-0.276-0.245-0.075-0.1-0.129-0.222-0.161-0.366-0.044-0.212-0.029-0.407 0.045-0.585 0.073-0.177 0.2-0.329 0.383-0.457 0.181-0.127 0.412-0.22 0.694-0.28 0.279-0.059 0.531-0.068 0.756-0.027 0.224 0.042 0.412 0.134 0.563 0.277 0.151 0.144 0.255 0.34 0.314 0.588l-0.707 0.15c-0.032-0.114-0.086-0.204-0.161-0.269-0.076-0.064-0.168-0.105-0.275-0.123-0.108-0.017-0.225-0.012-0.351 0.015-0.124 0.026-0.227 0.067-0.311 0.122-0.085 0.056-0.145 0.121-0.182 0.196s-0.047 0.154-0.029 0.237c0.017 0.078 0.053 0.138 0.111 0.181 0.056 0.043 0.132 0.074 0.228 0.093 0.095 0.019 0.208 0.030 0.34 0.033l0.396 0.015c0.306 0.009 0.56 0.071 0.761 0.186s0.328 0.3 0.381 0.555c0.046 0.209 0.029 0.404-0.050 0.584-0.080 0.181-0.21 0.336-0.39 0.465s-0.395 0.221-0.647 0.275c-0.256 0.054-0.49 0.058-0.699 0.011-0.211-0.047-0.387-0.137-0.527-0.271s-0.234-0.303-0.281-0.508l0.7-0.149z">
            </path>
            <path
                d="M14.509 28.168l-0.734 3.455-2.328-0.495 0.128-0.603 1.598 0.34 0.175-0.823-1.478-0.314 0.128-0.602 1.478 0.314 0.175-0.825-1.604-0.341 0.128-0.602 2.335 0.496z">
            </path>
            <path
                d="M5.876 23.006l-3.059 1.766-1.169-2.026 0.533-0.308 0.796 1.379 0.729-0.421-0.718-1.244 0.533-0.308 0.718 1.244 1.264-0.73 0.373 0.647z">
            </path>
            <path
                d="M1.805 15.702c0.383-0.040 0.717-0.002 1.001 0.115 0.284 0.116 0.51 0.291 0.678 0.525 0.167 0.233 0.266 0.505 0.299 0.815 0.033 0.312-0.009 0.6-0.124 0.863s-0.3 0.481-0.554 0.653c-0.254 0.172-0.571 0.279-0.953 0.319-0.383 0.040-0.717 0.003-1-0.113s-0.509-0.29-0.676-0.524c-0.168-0.233-0.268-0.506-0.301-0.818-0.033-0.31 0.009-0.596 0.125-0.859 0.114-0.264 0.298-0.482 0.552-0.655 0.253-0.174 0.572-0.28 0.955-0.321zM1.884 16.455c-0.248 0.026-0.454 0.085-0.616 0.177-0.163 0.091-0.281 0.208-0.355 0.351s-0.102 0.304-0.083 0.484c0.019 0.18 0.079 0.332 0.181 0.456s0.242 0.215 0.421 0.271c0.178 0.055 0.391 0.070 0.639 0.044s0.454-0.085 0.616-0.176c0.163-0.092 0.281-0.21 0.355-0.353s0.102-0.304 0.083-0.484c-0.019-0.18-0.079-0.332-0.181-0.456s-0.242-0.214-0.42-0.27c-0.178-0.056-0.391-0.072-0.64-0.046z">
            </path>
            <path
                d="M3.102 9.94c0.366 0.119 0.655 0.29 0.867 0.512 0.212 0.221 0.347 0.473 0.406 0.756 0.057 0.281 0.038 0.57-0.058 0.866-0.097 0.299-0.252 0.544-0.465 0.738s-0.47 0.317-0.772 0.371c-0.302 0.054-0.635 0.022-1.001-0.097-0.366-0.119-0.656-0.289-0.868-0.511s-0.347-0.472-0.404-0.754c-0.058-0.281-0.039-0.571 0.058-0.87 0.096-0.296 0.251-0.541 0.464-0.734 0.212-0.195 0.469-0.319 0.771-0.373 0.302-0.055 0.636-0.024 1.003 0.095zM2.868 10.66c-0.237-0.077-0.449-0.107-0.635-0.088-0.186 0.017-0.341 0.076-0.467 0.176s-0.217 0.237-0.272 0.408c-0.056 0.172-0.062 0.335-0.020 0.491s0.134 0.295 0.274 0.419c0.14 0.123 0.329 0.223 0.566 0.3s0.449 0.107 0.635 0.090c0.186-0.018 0.342-0.078 0.468-0.178s0.217-0.237 0.272-0.408c0.056-0.172 0.062-0.335 0.020-0.491s-0.134-0.294-0.274-0.417c-0.14-0.124-0.328-0.225-0.566-0.302z">
            </path>
            <path
                d="M6.756 7.704l-0.838 0.931-2.625-2.364 0.845-0.938c0.238-0.264 0.495-0.444 0.772-0.54s0.558-0.108 0.846-0.035c0.289 0.073 0.569 0.232 0.842 0.477s0.462 0.51 0.565 0.79c0.104 0.279 0.122 0.563 0.054 0.85s-0.221 0.562-0.461 0.829zM5.942 7.652l0.317-0.353c0.148-0.164 0.243-0.328 0.286-0.492 0.043-0.166 0.028-0.332-0.045-0.5-0.072-0.169-0.206-0.341-0.402-0.518-0.194-0.175-0.378-0.289-0.553-0.342s-0.34-0.052-0.499 0.008-0.312 0.171-0.46 0.336l-0.319 0.354 1.674 1.507z">
            </path>
            <path
                d="M10.54 2.043c-0.069-0.121-0.167-0.196-0.294-0.224s-0.272-0.005-0.436 0.068c-0.111 0.050-0.198 0.107-0.261 0.173-0.063 0.065-0.103 0.133-0.12 0.206-0.016 0.072-0.008 0.143 0.023 0.213 0.024 0.059 0.058 0.104 0.104 0.135 0.046 0.031 0.1 0.052 0.162 0.062 0.061 0.009 0.127 0.012 0.2 0.007 0.072-0.006 0.146-0.016 0.224-0.032l0.321-0.060c0.155-0.031 0.303-0.047 0.444-0.047s0.272 0.019 0.392 0.058c0.12 0.038 0.227 0.099 0.321 0.182 0.095 0.082 0.172 0.191 0.233 0.325 0.087 0.198 0.113 0.392 0.077 0.581-0.035 0.188-0.128 0.363-0.279 0.526-0.151 0.162-0.358 0.301-0.62 0.418-0.261 0.116-0.505 0.177-0.734 0.183-0.228 0.006-0.431-0.046-0.608-0.154-0.177-0.11-0.32-0.28-0.429-0.51l0.66-0.294c0.056 0.105 0.127 0.181 0.214 0.23 0.088 0.047 0.186 0.068 0.294 0.063 0.109-0.006 0.223-0.035 0.341-0.087 0.116-0.051 0.208-0.113 0.278-0.184 0.071-0.072 0.117-0.148 0.138-0.229s0.014-0.16-0.021-0.238c-0.032-0.072-0.081-0.124-0.146-0.154-0.064-0.031-0.145-0.045-0.242-0.043-0.096 0.001-0.21 0.014-0.34 0.038l-0.391 0.068c-0.302 0.055-0.562 0.047-0.783-0.023s-0.383-0.225-0.488-0.464c-0.088-0.195-0.112-0.389-0.072-0.582 0.041-0.193 0.136-0.372 0.284-0.536s0.34-0.299 0.576-0.404c0.239-0.107 0.467-0.159 0.682-0.156 0.216 0.002 0.407 0.054 0.571 0.155s0.292 0.248 0.38 0.439l-0.654 0.291z">
            </path>
        </symbol>
        <symbol id="icon-star" viewBox="0 0 34 32">
            <path
                d="M14.588 1.412l-3.824 7.824-8.647 1.235c-1.529 0.235-2.118 2.118-1 3.235l6.176 6.059-1.471 8.529c-0.235 1.53 1.412 2.706 2.765 2l7.706-4.059 7.647 4.059c1.353 0.706 3-0.471 2.765-2l-1.471-8.529 6.177-6.059c1.118-1.118 0.529-3-1-3.235l-8.588-1.235-3.882-7.824c-0.647-1.353-2.647-1.412-3.353 0z">
            </path>
        </symbol>
        <symbol id="icon-logo" viewBox="0 0 115 32">
            <path
                d="M35.193 27.345v-8.569h2.304v1.495h0.089c0.156-0.532 0.418-0.933 0.787-1.205 0.368-0.275 0.792-0.413 1.272-0.413 0.119 0 0.247 0.007 0.385 0.022s0.258 0.035 0.363 0.061v2.109c-0.112-0.033-0.266-0.063-0.463-0.089s-0.377-0.039-0.541-0.039c-0.35 0-0.662 0.076-0.937 0.229-0.271 0.149-0.487 0.357-0.647 0.625-0.156 0.268-0.234 0.576-0.234 0.926v4.848h-2.377zM45.126 27.513c-0.881 0-1.64-0.178-2.276-0.535-0.632-0.361-1.119-0.87-1.462-1.529-0.342-0.662-0.513-1.445-0.513-2.349 0-0.881 0.171-1.655 0.513-2.321s0.824-1.184 1.445-1.556c0.625-0.372 1.357-0.558 2.198-0.558 0.565 0 1.092 0.091 1.579 0.273 0.491 0.178 0.919 0.448 1.283 0.809 0.368 0.361 0.655 0.814 0.859 1.361 0.205 0.543 0.307 1.179 0.307 1.908v0.653h-7.235v-1.473h4.998c0-0.342-0.074-0.645-0.223-0.909s-0.355-0.47-0.619-0.619c-0.26-0.152-0.563-0.229-0.909-0.229-0.361 0-0.681 0.084-0.959 0.251-0.275 0.164-0.491 0.385-0.647 0.664-0.156 0.275-0.236 0.582-0.24 0.92v1.4c0 0.424 0.078 0.79 0.234 1.099 0.16 0.309 0.385 0.547 0.675 0.714s0.634 0.251 1.032 0.251c0.264 0 0.506-0.037 0.725-0.112s0.407-0.186 0.563-0.335c0.156-0.149 0.275-0.331 0.357-0.547l2.198 0.145c-0.112 0.528-0.34 0.989-0.686 1.384-0.342 0.391-0.785 0.695-1.328 0.915-0.539 0.216-1.162 0.324-1.869 0.324zM57.739 21.22l-2.176 0.134c-0.037-0.186-0.117-0.353-0.24-0.502-0.123-0.152-0.285-0.273-0.485-0.363-0.197-0.093-0.433-0.139-0.708-0.139-0.368 0-0.679 0.078-0.932 0.234-0.253 0.152-0.379 0.357-0.379 0.614 0 0.205 0.082 0.377 0.245 0.519s0.444 0.255 0.842 0.34l1.551 0.312c0.833 0.171 1.454 0.446 1.863 0.826s0.614 0.878 0.614 1.495c0 0.562-0.165 1.054-0.496 1.478-0.327 0.424-0.777 0.755-1.35 0.993-0.569 0.234-1.225 0.351-1.969 0.351-1.134 0-2.038-0.236-2.711-0.708-0.669-0.476-1.062-1.123-1.177-1.941l2.337-0.123c0.071 0.346 0.242 0.61 0.513 0.792 0.271 0.178 0.619 0.268 1.043 0.268 0.417 0 0.751-0.080 1.004-0.24 0.257-0.164 0.387-0.374 0.391-0.63-0.004-0.216-0.095-0.392-0.273-0.53-0.179-0.141-0.454-0.249-0.826-0.324l-1.484-0.296c-0.837-0.167-1.46-0.457-1.869-0.87-0.405-0.413-0.608-0.939-0.608-1.579 0-0.55 0.149-1.025 0.446-1.423 0.301-0.398 0.723-0.705 1.266-0.92 0.547-0.216 1.186-0.324 1.919-0.324 1.082 0 1.934 0.229 2.555 0.686 0.625 0.457 0.989 1.080 1.093 1.869zM63.989 18.777v1.785h-5.16v-1.785h5.16zM60 16.724h2.377v7.988c0 0.219 0.033 0.391 0.1 0.513 0.067 0.119 0.16 0.203 0.279 0.251 0.123 0.048 0.264 0.073 0.424 0.073 0.112 0 0.223-0.009 0.335-0.028 0.112-0.022 0.197-0.039 0.257-0.050l0.374 1.768c-0.119 0.037-0.286 0.080-0.502 0.128-0.215 0.052-0.478 0.084-0.787 0.095-0.572 0.022-1.075-0.054-1.506-0.229-0.428-0.175-0.761-0.446-0.999-0.814s-0.355-0.833-0.351-1.395v-8.301zM67.98 27.507c-0.547 0-1.034-0.095-1.462-0.285-0.428-0.193-0.766-0.478-1.015-0.854-0.246-0.379-0.368-0.852-0.368-1.417 0-0.476 0.087-0.876 0.262-1.199s0.412-0.584 0.714-0.781c0.301-0.197 0.644-0.346 1.026-0.446 0.387-0.1 0.792-0.171 1.216-0.212 0.499-0.052 0.9-0.1 1.205-0.145 0.305-0.048 0.527-0.119 0.664-0.212s0.207-0.231 0.207-0.413v-0.033c0-0.353-0.112-0.627-0.335-0.82-0.219-0.193-0.532-0.29-0.937-0.29-0.428 0-0.768 0.095-1.021 0.284-0.252 0.186-0.42 0.42-0.502 0.703l-2.198-0.178c0.112-0.521 0.331-0.971 0.658-1.35 0.328-0.383 0.749-0.677 1.267-0.881 0.521-0.208 1.123-0.312 1.807-0.312 0.476 0 0.931 0.056 1.367 0.167 0.439 0.112 0.828 0.285 1.166 0.519 0.342 0.234 0.612 0.536 0.809 0.904 0.197 0.364 0.296 0.801 0.296 1.311v5.779h-2.254v-1.188h-0.067c-0.137 0.268-0.322 0.504-0.552 0.708-0.23 0.201-0.508 0.359-0.831 0.474-0.323 0.112-0.697 0.167-1.121 0.167zM68.661 25.867c0.35 0 0.658-0.069 0.926-0.206 0.268-0.141 0.478-0.331 0.631-0.569s0.229-0.508 0.229-0.809v-0.909c-0.074 0.048-0.177 0.093-0.307 0.134-0.127 0.037-0.27 0.073-0.43 0.106-0.16 0.030-0.319 0.058-0.479 0.084-0.16 0.022-0.305 0.043-0.435 0.061-0.279 0.041-0.522 0.106-0.731 0.195s-0.37 0.21-0.485 0.363c-0.115 0.149-0.173 0.335-0.173 0.558 0 0.324 0.118 0.571 0.351 0.742 0.239 0.167 0.539 0.251 0.904 0.251zM80.144 23.697v-4.92h2.376v8.569h-2.281v-1.556h-0.090c-0.193 0.502-0.515 0.906-0.965 1.211-0.446 0.305-0.991 0.457-1.635 0.457-0.573 0-1.076-0.13-1.512-0.391s-0.776-0.63-1.021-1.11c-0.241-0.48-0.364-1.054-0.368-1.724v-5.456h2.376v5.032c0.004 0.506 0.14 0.906 0.407 1.199s0.627 0.441 1.076 0.441c0.287 0 0.554-0.065 0.803-0.195 0.249-0.134 0.45-0.331 0.603-0.591 0.156-0.26 0.232-0.582 0.229-0.965zM84.421 27.345v-8.569h2.304v1.495h0.090c0.156-0.532 0.418-0.933 0.787-1.205 0.368-0.275 0.792-0.413 1.272-0.413 0.119 0 0.247 0.007 0.385 0.022s0.259 0.035 0.363 0.061v2.109c-0.112-0.033-0.266-0.063-0.463-0.089s-0.378-0.039-0.541-0.039c-0.35 0-0.662 0.076-0.937 0.229-0.272 0.149-0.487 0.357-0.647 0.625-0.156 0.268-0.234 0.576-0.234 0.926v4.848h-2.377zM93.047 27.507c-0.547 0-1.034-0.095-1.462-0.285-0.428-0.193-0.766-0.478-1.015-0.854-0.246-0.379-0.368-0.852-0.368-1.417 0-0.476 0.087-0.876 0.262-1.199s0.412-0.584 0.714-0.781c0.301-0.197 0.644-0.346 1.026-0.446 0.387-0.1 0.792-0.171 1.216-0.212 0.499-0.052 0.9-0.1 1.205-0.145 0.305-0.048 0.527-0.119 0.664-0.212s0.207-0.231 0.207-0.413v-0.033c0-0.353-0.112-0.627-0.335-0.82-0.219-0.193-0.532-0.29-0.937-0.29-0.428 0-0.768 0.095-1.021 0.284-0.252 0.186-0.42 0.42-0.502 0.703l-2.198-0.178c0.112-0.521 0.331-0.971 0.658-1.35 0.328-0.383 0.749-0.677 1.267-0.881 0.521-0.208 1.123-0.312 1.807-0.312 0.476 0 0.931 0.056 1.367 0.167 0.439 0.112 0.828 0.285 1.166 0.519 0.342 0.234 0.612 0.536 0.809 0.904 0.197 0.364 0.296 0.801 0.296 1.311v5.779h-2.254v-1.188h-0.067c-0.137 0.268-0.322 0.504-0.552 0.708-0.23 0.201-0.508 0.359-0.831 0.474-0.323 0.112-0.697 0.167-1.121 0.167zM93.728 25.867c0.35 0 0.658-0.069 0.926-0.206 0.268-0.141 0.478-0.331 0.631-0.569s0.229-0.508 0.229-0.809v-0.909c-0.074 0.048-0.177 0.093-0.307 0.134-0.127 0.037-0.27 0.073-0.43 0.106-0.16 0.030-0.319 0.058-0.479 0.084-0.16 0.022-0.305 0.043-0.435 0.061-0.279 0.041-0.522 0.106-0.731 0.195s-0.37 0.21-0.485 0.363c-0.115 0.149-0.173 0.335-0.173 0.558 0 0.324 0.118 0.571 0.351 0.742 0.239 0.167 0.539 0.251 0.904 0.251zM102.093 22.392v4.954h-2.376v-8.569h2.264v1.512h0.101c0.19-0.498 0.507-0.893 0.954-1.183 0.446-0.294 0.988-0.441 1.624-0.441 0.595 0 1.114 0.13 1.556 0.39s0.787 0.632 1.032 1.116c0.246 0.48 0.368 1.052 0.368 1.718v5.456h-2.376v-5.032c0.004-0.524-0.13-0.933-0.402-1.227-0.271-0.298-0.645-0.446-1.121-0.446-0.32 0-0.602 0.069-0.848 0.206-0.242 0.138-0.432 0.338-0.569 0.602-0.134 0.26-0.203 0.575-0.207 0.943zM114.046 18.777v1.785h-5.16v-1.785h5.16zM110.057 16.724h2.377v7.988c0 0.219 0.033 0.391 0.101 0.513 0.067 0.119 0.159 0.203 0.279 0.251 0.123 0.048 0.264 0.073 0.424 0.073 0.111 0 0.223-0.009 0.335-0.028 0.112-0.022 0.197-0.039 0.257-0.050l0.374 1.768c-0.119 0.037-0.286 0.080-0.502 0.128-0.215 0.052-0.478 0.084-0.786 0.095-0.573 0.022-1.075-0.054-1.506-0.229-0.428-0.175-0.76-0.446-0.999-0.814s-0.355-0.833-0.351-1.395v-8.301z">
            </path>
            <path stroke-linejoin="miter" stroke-linecap="butt" stroke-miterlimit="4" stroke-width="2.0779"
                d="M8.893 22.151c3.099 0 5.61-2.512 5.61-5.61s-2.512-5.61-5.61-5.61c-3.099 0-5.61 2.512-5.61 5.61s2.512 5.61 5.61 5.61z">
            </path>
            <path
                d="M0.002 17.87c-0.001 0.069-0.002 0.138-0.002 0.208 0 7.689 6.233 13.922 13.922 13.922s13.922-6.233 13.922-13.922c0-0.069-0-0.139-0.002-0.208h-27.841z">
            </path>
            <path stroke-linejoin="miter" stroke-linecap="butt" stroke-miterlimit="4" stroke-width="1.2468"
                d="M20.738 14.255c1.377 0 2.494-1.116 2.494-2.494s-1.116-2.494-2.494-2.494c-1.377 0-2.494 1.116-2.494 2.494s1.116 2.494 2.494 2.494z">
            </path>
            <path stroke-linejoin="miter" stroke-linecap="butt" stroke-miterlimit="4" stroke-width="1.2468"
                d="M16.166 5.943c1.377 0 2.494-1.116 2.494-2.494s-1.116-2.494-2.494-2.494c-1.377 0-2.494 1.116-2.494 2.494s1.116 2.494 2.494 2.494z">
            </path>
        </symbol>
    </defs>
</svg>